<svg xmlns="http://www.w3.org/2000/svg" id="flag-icons-br" viewBox="0 0 640 480" width="40" height="30">
  <g stroke-width="1pt">
    <path fill="#229e45" fill-rule="evenodd" d="M0 0h640v480H0z"/>
    <path fill="#f8e509" fill-rule="evenodd" d="m321.4 436 301.5-195.7L319.6 44 17.1 240.7 321.4 436z"/>
    <path fill="#2b49a3" fill-rule="evenodd" d="M452.8 240c0 70.3-57.1 127.3-127.6 127.3A127.4 127.4 0 1 1 452.8 240z"/>
    <path fill="#ffffef" fill-rule="evenodd" d="m283.3 316.3-4-2.3-4 2 .9-4.5-3.2-3.4 4.5-.5 2.2-4 1.9 4.2 4.4.8-3.3 3m86 26.3-3.9-2.3-4 2 .8-4.5-3.1-3.3 4.5-.5 2.1-4.1 2 4.2 4.4.8-3.4 3.1m-36.2-30-3.4-2-3.5 1.8.8-3.9-2.8-2.9 4-.4 1.8-3.6 1.6 3.7 3.9.7-3 2.7m87-8.5-3.4-2-3.5 1.8.8-3.9-2.7-2.8 3.9-.4 1.8-3.5 1.6 3.6 3.8.7-2.9 2.6m-87.3-22-4-2.2-4 2 .8-4.6-3.1-3.3 4.5-.5 2.1-4.1 2 4.2 4.4.8-3.4 3.2m-104.6-35-4-2.2-4 2 1-4.6-3.3-3.3 4.6-.5 2-4.1 2 4.2 4.4.8-3.3 3.1m13.3 57.2-4-2.3-4 2 .9-4.5-3.2-3.3 4.5-.6 2.1-4 2 4.2 4.4.8-3.3 3.1m132-67.3-3.6-2-3.6 1.8.8-4-2.8-3 4-.5 1.9-3.6 1.7 3.8 4 .7-3 2.7m-6.7 38.3-2.7-1.6-2.9 1.4.6-3.2-2.2-2.3 3.2-.4 1.5-2.8 1.3 3 3 .5-2.2 2.2m-142.2 50.4-2.7-1.5-2.7 1.3.6-3-2.1-2.2 3-.4 1.4-2.7 1.3 2.8 3 .6-2.3 2M419 299.8l-2.2-1.1-2.2 1 .5-2.3-1.7-1.6 2.4-.3 1.2-2 1 2 2.5.5-1.9 1.5"/>
    <path fill="#ffffef" fill-rule="evenodd" d="m219.3 287.6-2.7-1.5-2.7 1.3.6-3-2.1-2.2 3-.4 1.4-2.7 1.3 2.8 3 .6-2.3 2"/>
    <path fill="#ffffef" fill-rule="evenodd" d="m219.3 287.6-2.7-1.5-2.7 1.3.6-3-2.1-2.2 3-.4 1.4-2.7 1.3 2.8 3 .6-2.3 2m42.3 3-2.6-1.4-2.7 1.3.6-3-2.1-2.2 3-.4 1.4-2.7 1.3 2.8 3 .5-2.3 2.1m-4.8 17-2.6-1.5-2.7 1.4.6-3-2.1-2.3 3-.4 1.4-2.7 1.3 2.8 3 .6-2.3 2m87.4-22.2-2.6-1.6-2.8 1.4.6-3-2-2.3 3-.3 1.4-2.7 1.2 2.8 3 .5-2.2 2.1m-25.1 3-2.7-1.5-2.7 1.4.6-3-2-2.3 3-.3 1.4-2.8 1.2 2.9 3 .5-2.2 2.1m-68.8-5.8-1.7-1-1.7.8.4-1.9-1.3-1.4 1.9-.2.8-1.7.8 1.8 1.9.3-1.4 1.3m167.8 45.4-2.6-1.5-2.7 1.4.6-3-2.1-2.3 3-.4 1.4-2.7 1.3 2.8 3 .6-2.3 2m-20.8 6-2.2-1.4-2.3 1.2.5-2.6-1.7-1.8 2.5-.3 1.2-2.3 1 2.4 2.5.4-1.9 1.8m10.4 2.3-2-1.2-2.1 1 .4-2.3-1.6-1.7 2.3-.3 1.1-2 1 2 2.3.5-1.7 1.6m29.1-22.8-2-1-2 1 .5-2.3-1.6-1.7 2.3-.3 1-2 1 2.1 2.1.4-1.6 1.6m-38.8 41.8-2.5-1.4-2.7 1.2.6-2.8-2-2 3-.3 1.3-2.5 1.2 2.6 3 .5-2.3 1.9m.6 14.2-2.4-1.4-2.4 1.3.6-2.8-1.9-2 2.7-.4 1.2-2.5 1.1 2.6 2.7.5-2 2m-19-23.1-1.9-1.2-2 1 .4-2.2-1.5-1.7 2.2-.2 1-2 1 2 2.2.4-1.6 1.6m-17.8 2.3-2-1.2-2 1 .5-2.2-1.6-1.7 2.3-.2 1-2 1 2 2.1.4-1.6 1.6m-30.4-24.6-2-1.1-2 1 .5-2.3-1.6-1.6 2.2-.3 1-2 1 2 2.2.5-1.6 1.5m3.7 57-1.6-.9-1.6.7.3-1.6-1-1.3 1.6-.2.7-1.5.7 1.5 1.6.3-1.3 1.1m98.7-10.2-2.1-1.2-2 1 .4-2.3-1.5-1.7 2.2-.3 1-2 1 2 2.3.5-1.7 1.6m-62.5 6.1-1.9-1-1.9 1 .4-2.1-1.5-1.5 2-.3.9-2 1 2 2.2.4-1.6 1.6m64.8-26.3-2.3-1.2-2.4 1.2.6-2.7-1.8-1.9 2.8-.4 1.1-2.5 1.1 2.6 2.7.6-2.3 2.1m-58.8-17.6-1.8-1-1.8.8.4-1.9-1.3-1.4 1.9-.2.8-1.7.8 1.8 1.9.3-1.4 1.3"/>
    <path fill="#ffffef" fill-rule="evenodd" d="M401.4 250.1c-64.7-12.4-105.6-9.2-142.8-8.6 6.3-6.2 10.2-15.3 10.2-25 0-19.2-13.5-34.7-30.2-34.7-11 0-20.5 6.6-26 16.3-5.2-12.5-15.4-21-26.9-21-17 0-30.7 16-30.7 35.7 0 8.7 2.8 16.4 7.4 22-50.2 14.3-107.5 25.5-168.1 24.5 39.5 78 122.1 131.3 218 131.3 96 0 178.7-53.3 218.2-131.4-8.3 0-16.2-.5-24.1-1.2zm-246.3-49.7c-5.7 0-10.4 7-10.4 15.7 0 8.6 4.6 15.5 10.3 15.5 5.7 0 10.4-7 10.4-15.7-.1-8.6-4.7-15.5-10.3-15.5zm-56 17.8c-5.5 0-10-6.6-10-14.6s4.5-14.6 10-14.6 10 6.6 10 14.6c.1 8.1-4.4 14.6-10 14.6zm36.1-11.1c5.5 0 10 6.6 10 14.6s-4.5 14.6-10 14.6-10-6.6-10-14.6c0-8 4.5-14.6 10-14.6zm-57.8 13c5.6 0 10.1 6.6 10.1 14.6s-4.5 14.6-10.1 14.6c-5.6 0-10.1-6.6-10.1-14.6.1-8 4.6-14.6 10.1-14.6zm-36.1 11.1c5.5 0 10 6.6 10 14.6s-4.5 14.6-10 14.6-10-6.6-10-14.6c.1-8 4.5-14.6 10-14.6zm130 46.8c-11.3 0-20.4 9.4-20.4 20.9 0 11.5 9.1 20.9 20.4 20.9 11.3 0 20.4-9.4 20.4-20.9 0-11.5-9.1-20.9-20.4-20.9z"/>
  </g>
</svg>
